<?xml version="1.0" encoding="UTF-8" standalone="no"?>
<!-- Created with Inkscape (http://www.inkscape.org/) -->

<svg
   width="33mm"
   height="20mm"
   viewBox="0 0 33 20"
   version="1.1"
   id="svg1"
   xmlns="http://www.w3.org/2000/svg"
   xmlns:svg="http://www.w3.org/2000/svg">
  <defs
     id="defs1" />
  <g
     id="layer1">
    <g
       id="g1"
       transform="matrix(1.3779705,0,0,1.3779705,22.285962,-3.0863174)"
       style="fill:#ffffff">
      <path
         id="path19"
         style="fill:#ffffff;fill-opacity:1;stroke:none;stroke-width:0.150214;stroke-linecap:square;stroke-linejoin:round;-inkscape-stroke:none;paint-order:stroke fill markers"
         d="m -8.60953,3.1259302 a 6.3708934,6.3708934 0 0 0 -6.37085,6.37084 6.3708934,6.3708934 0 0 0 6.37085,6.3709198 6.3708934,6.3708934 0 0 0 2.7695,-0.63346 7.7949084,7.7949084 0 0 1 -1.55647,-1.98648 3.9422032,3.9422032 0 0 1 -1.21303,0.19123 3.9422032,3.9422032 0 0 1 -3.94214,-3.9422098 3.9422032,3.9422032 0 0 1 3.94214,-3.94213 3.9422032,3.9422032 0 0 1 1.21303,0.19123 7.7949084,7.7949084 0 0 1 1.55647,-1.98648 6.3708934,6.3708934 0 0 0 -2.7695,-0.63346 z" />
      <path
         id="path22"
         style="fill:#ffffff;fill-opacity:1;stroke:none;stroke-width:0.150214;stroke-linecap:square;stroke-linejoin:round;-inkscape-stroke:none;paint-order:stroke fill markers"
         d="m -1.13922,3.1259302 c -3.51851,2e-5 -6.37082,2.85233 -6.37085,6.37084 -2e-5,3.5185398 2.85231,6.3708998 6.37085,6.3709198 0.95908,0 1.90578,-0.21653 2.7695,-0.63346 C 1.007,14.66101 0.48129,13.99005 0.07381,13.24775 c -0.39187,0.12672 -0.80118,0.19124 -1.21303,0.19123 -2.1772,-4e-5 -3.94214,-1.76502 -3.94214,-3.9422098 5e-5,-2.17717 1.76497,-3.9421 3.94214,-3.94213 0.22965,-2e-5 0.45886,0.02 0.68502,0.0599 l 0.9084,-2.28615 c -0.52048,-0.13444 -1.05587,-0.20247 -1.59342,-0.20247 z" />
    </g>
    <path
       id="path1"
       style="fill:#f6a800;fill-opacity:1;stroke:none;stroke-width:0.189953;stroke-linecap:square;stroke-linejoin:round;-inkscape-stroke:none;paint-order:stroke fill markers"
       d="m 31.355291,1.3086157 c -0.07965,9.792e-4 -0.955908,0.4471661 -1.574425,0.8010987 -3.679823,2.1056931 -6.380875,4.66342 -7.827265,7.412119 l -0.28982,0.5511546 -0.34109,-0.6771946 C 21.040579,8.8351505 20.546928,8.0279278 20.275922,7.6846472 c -0.05525,-0.070139 -0.180605,-0.076217 -1.554486,-0.081178 -0.853793,-0.00273 -1.492811,0.010708 -1.4904,0.032753 0.0027,0.02122 0.136834,0.1779767 0.299077,0.3482115 0.558562,0.5859421 1.112475,1.4233927 1.679814,2.5393023 0.412124,0.810635 0.674094,1.424131 1.137203,2.666057 0.02632,0.07096 0.120929,0.07541 1.367209,0.0648 l 1.339437,-0.01068 0.257064,-0.761935 c 0.603538,-1.787713 1.595412,-3.7754006 2.723021,-5.4574373 1.352261,-2.0171464 2.957243,-3.7709708 4.867831,-5.3200053 0.268636,-0.2177751 0.472947,-0.3962518 0.453599,-0.395921 z" />
  </g>
</svg>
