<?xml version="1.0" encoding="UTF-8" standalone="no"?>
<!-- Created with Inkscape (http://www.inkscape.org/) -->

<svg
   width="33mm"
   height="20mm"
   viewBox="0 0 33 20"
   version="1.1"
   id="svg1"
   xmlns="http://www.w3.org/2000/svg"
   xmlns:svg="http://www.w3.org/2000/svg">
  <defs
     id="defs1" />
  <g
     id="layer1">
    <path
       id="path3"
       style="fill:#ffffff;fill-opacity:1;stroke:none;stroke-width:0.189953;stroke-linecap:square;stroke-linejoin:round;-inkscape-stroke:none;paint-order:stroke fill markers"
       d="m 10.422054,1.2210287 a 8.778922,8.778922 0 0 0 -8.7786138,8.7786157 8.778922,8.778922 0 0 0 8.7786138,8.7793266 8.778922,8.778922 0 0 0 3.81679,-0.87302 10.741177,10.741177 0 0 1 -2.144807,-2.737264 5.4322514,5.4322514 0 0 1 -1.671983,0.263473 5.4322514,5.4322514 0 0 1 -5.4318025,-5.4325156 5.4322514,5.4322514 0 0 1 5.4318025,-5.4318045 5.4322514,5.4322514 0 0 1 1.671983,0.2634724 10.741177,10.741177 0 0 1 2.144807,-2.737264 8.778922,8.778922 0 0 0 -3.81679,-0.8730196 z m 10.293937,0 c -4.848413,2.8e-5 -8.778573,3.9302025 -8.778614,8.7786157 -2.7e-5,4.8484546 3.93016,8.7792986 8.778614,8.7793266 1.321588,0 2.626607,-0.298501 3.81679,-0.87302 -0.858863,-0.789881 -1.583311,-1.714394 -2.144807,-2.737264 -0.539987,0.174617 -1.104464,0.263487 -1.671983,0.263473 -3.000123,-5.6e-5 -5.431803,-2.432407 -5.431803,-5.4325156 6.9e-5,-3.0000825 2.431721,-5.4317633 5.431803,-5.4318045 0.316452,-2.8e-5 0.632587,0.026906 0.944229,0.08189 L 22.912071,1.5001672 C 22.194863,1.3149125 21.456721,1.2210287 20.715991,1.2210287 Z m 10.6393,0.087587 c -0.07965,9.792e-4 -0.955908,0.4471661 -1.574425,0.8010987 -3.679823,2.1056931 -6.380875,4.66342 -7.827265,7.412119 l -0.28982,0.5511546 -0.34109,-0.6771946 C 21.040579,8.8351505 20.546928,8.0279278 20.275922,7.6846472 c -0.05525,-0.070139 -0.180605,-0.076217 -1.554486,-0.081178 -0.853793,-0.00273 -1.492811,0.010708 -1.4904,0.032753 0.0027,0.02122 0.136834,0.1779767 0.299077,0.3482115 0.558562,0.5859421 1.112475,1.4233927 1.679814,2.5393023 0.412124,0.810635 0.674094,1.424131 1.137203,2.666057 0.02632,0.07096 0.120929,0.07541 1.367209,0.0648 l 1.339437,-0.01068 0.257064,-0.761935 c 0.603538,-1.787713 1.595412,-3.7754006 2.723021,-5.4574373 1.352261,-2.0171464 2.957243,-3.7709708 4.867831,-5.3200053 0.268636,-0.2177751 0.472947,-0.3962518 0.453599,-0.395921 z" />
  </g>
</svg>
